<svg width="59" height="58" viewBox="0 0 59 58" fill="none" xmlns="http://www.w3.org/2000/svg">
<path d="M12.7994 6.90759C10.0759 6.90759 7.86548 9.11801 7.86548 11.8416V43.4189C7.86548 46.1425 10.0759 48.3529 12.7994 48.3529H44.3768C47.1004 48.3529 49.3108 46.1425 49.3108 43.4189V11.8416C49.3108 9.11801 47.1004 6.90759 44.3768 6.90759H12.7994ZM15.7598 20.7227H22.4014C23.1218 20.7227 27.0193 20.6737 27.0193 24.2459C27.0193 26.1405 25.7262 26.7813 25.144 27.0675C26.0124 27.3438 27.6013 28.1434 27.6013 30.5906C27.6013 34.37 23.2689 34.5378 22.6866 34.5378H15.7598V20.7227ZM32.5353 20.7227H39.4429V22.6963H32.5353V20.7227ZM18.7202 23.1203V26.3582H21.8984C22.3326 26.3582 23.7717 26.1205 23.7717 24.6699C23.7717 23.2193 21.8974 23.1203 21.6112 23.1203H18.7202ZM36.2165 23.6831C40.065 23.6831 41.1102 26.6827 41.268 27.3932C41.4161 28.1135 41.4164 28.7453 41.4164 29.6038H33.6204C33.6204 30.4623 34.0753 32.3965 36.3745 32.3965C36.9864 32.3965 37.4391 32.2491 37.9029 31.9629C38.3568 31.6767 38.5162 31.3991 38.6642 31.1129H41.2584C40.8045 32.2477 40.1929 33.1078 39.2752 33.6801C38.3575 34.2525 37.2917 34.5378 36.0681 34.5378C35.2984 34.5378 34.5385 34.3903 33.7688 34.1042C33.157 33.818 32.5459 33.3933 32.092 32.969C31.6381 32.5348 31.3321 31.9622 31.0262 31.2517C30.7203 30.6794 30.5617 29.8209 30.5617 29.1104C30.5617 28.3999 30.8484 23.6831 36.2165 23.6831ZM36.2165 25.6856C33.9864 25.6856 33.6204 27.8275 33.6204 27.9656H38.5158C38.3579 27.2551 37.7164 25.6856 36.2165 25.6856ZM18.7202 28.3318V32.1402H22.0275C22.3127 32.1402 24.3249 32.052 24.3249 30.3054C24.3249 28.5686 22.7439 28.3318 22.0275 28.3318H18.7202Z" fill="#FF9837"/>
</svg>
