<svg width="59" height="58" viewBox="0 0 59 58" fill="none" xmlns="http://www.w3.org/2000/svg">
<path d="M42.9039 6.90759H11.3265C8.60299 6.90759 6.39258 9.11801 6.39258 11.8416V43.4189C6.39258 46.1425 8.60299 48.3529 11.3265 48.3529H42.9039C45.6275 48.3529 47.8379 46.1425 47.8379 43.4189V11.8416C47.8379 9.11801 45.6275 6.90759 42.9039 6.90759ZM19.2209 22.6963V41.4454H13.3001V22.6963H19.2209ZM13.3001 17.2393C13.3001 15.8578 14.4843 14.8019 16.2605 14.8019C18.0367 14.8019 19.1518 15.8578 19.2209 17.2393C19.2209 18.6208 18.1157 19.7359 16.2605 19.7359C14.4843 19.7359 13.3001 18.6208 13.3001 17.2393ZM40.9303 41.4454H35.0096C35.0096 41.4454 35.0096 32.3076 35.0096 31.5774C35.0096 29.6038 34.0228 27.6302 31.5558 27.5908H31.4769C29.0888 27.5908 28.102 29.6236 28.102 31.5774C28.102 32.4754 28.102 41.4454 28.102 41.4454H22.1813V22.6963H28.102V25.2225C28.102 25.2225 30.0065 22.6963 33.8353 22.6963C37.7529 22.6963 40.9303 25.3902 40.9303 30.8472V41.4454Z" fill="#FF9837"/>
</svg>
