<svg width="24" height="25" viewBox="0 0 24 25" fill="none" xmlns="http://www.w3.org/2000/svg">
<path d="M9.49458 18.5197C8.75625 18.5197 8.13 18.2626 7.61583 17.7485C7.10166 17.2343 6.84458 16.608 6.84458 15.8697V4.20872C6.84458 3.47038 7.10166 2.84413 7.61583 2.32997C8.13 1.8158 8.75625 1.55872 9.49458 1.55872H18.1556C18.8939 1.55872 19.5202 1.8158 20.0343 2.32997C20.5485 2.84413 20.8056 3.47038 20.8056 4.20872V15.8697C20.8056 16.608 20.5485 17.2343 20.0343 17.7485C19.5202 18.2626 18.8939 18.5197 18.1556 18.5197H9.49458ZM9.49458 15.8697H18.1556V4.20872H9.49458V15.8697ZM4.84458 23.1697C4.10625 23.1697 3.48 22.9126 2.96583 22.3985C2.45166 21.8843 2.19458 21.258 2.19458 20.5197V6.20872H4.84458V20.5197H16.1556V23.1697H4.84458Z" fill="#2D88FF"/>
</svg>
