<svg width="54" height="54" viewBox="0 0 54 54" fill="none" xmlns="http://www.w3.org/2000/svg">
<path d="M27 48.1577C38.8058 48.1577 48.3763 38.5873 48.3763 26.7815C48.3763 14.9757 38.8058 5.40527 27 5.40527C15.1942 5.40527 5.62378 14.9757 5.62378 26.7815C5.62378 38.5873 15.1942 48.1577 27 48.1577Z" fill="#3C4042"/>
<path fill-rule="evenodd" clip-rule="evenodd" d="M27.0001 4.7157C14.8187 4.7157 4.93433 14.6001 4.93433 26.7815C4.93433 38.9629 14.8187 48.8473 27.0001 48.8473C39.1584 48.8473 49.0659 38.9629 49.0659 26.7815C49.0659 14.6001 39.1584 4.7157 27.0001 4.7157ZM41.5746 14.8869C44.207 18.0942 45.7869 22.1863 45.8344 26.6138C45.2121 26.4946 38.9896 25.2258 32.7196 26.0158C32.5761 25.7047 32.4559 25.3693 32.3125 25.035C31.9296 24.1259 31.4982 23.1925 31.0679 22.3065C38.0087 19.4821 41.1686 15.4132 41.5746 14.8869ZM27.0001 7.9704C31.7862 7.9704 36.1662 9.76545 39.4927 12.709C39.1573 13.1879 36.3097 16.9931 29.6083 19.5053C26.5213 13.8333 23.0989 9.19064 22.5726 8.4724C23.9848 8.1381 25.4688 7.9704 27.0001 7.9704ZM18.9825 9.74118C19.4845 10.4109 22.8352 15.0778 25.9707 20.6306C17.1632 22.9762 9.385 22.9288 8.5476 22.9288C9.76894 17.0891 13.7176 12.2302 18.9825 9.74118ZM8.14159 26.8058C8.14159 26.6138 8.14159 26.4229 8.14159 26.2309C8.95582 26.2552 18.0977 26.3744 27.5032 23.55C28.0538 24.6025 28.5558 25.6804 29.0346 26.7572C28.7952 26.8289 28.5315 26.9006 28.2932 26.9724C18.5765 30.1079 13.4076 38.6749 12.9762 39.3932C9.98408 36.0679 8.14159 31.6393 8.14159 26.8058ZM27.0001 45.64C22.6443 45.64 18.6239 44.1561 15.441 41.6671C15.7764 40.9731 19.6048 33.602 30.2317 29.8928C30.2791 29.8685 30.3034 29.8685 30.3519 29.8453C33.0086 36.7144 34.0854 42.4813 34.3723 44.1329C32.0973 45.1137 29.6083 45.64 27.0001 45.64ZM37.5067 42.4096C37.3148 41.2611 36.3097 35.7567 33.8449 28.9837C39.7563 28.0503 44.9253 29.5816 45.5718 29.7979C44.7587 35.0385 41.7423 39.5609 37.5067 42.4096Z" fill="#FF9837"/>
</svg>
